<svg width="544" height="500" viewBox="0 0 544 500" fill="none" xmlns="http://www.w3.org/2000/svg">
<path d="M56.7321 131C63.997 118.417 76.7843 109.637 93.978 104.664C111.185 99.6874 132.684 98.5659 157.086 101.239C205.884 106.583 265.902 127.057 325.506 161.469C385.111 195.882 432.85 237.622 461.878 277.21C476.393 297.006 486.172 316.186 490.465 333.576C494.756 350.953 493.546 366.417 486.281 379C479.016 391.583 466.228 400.363 449.035 405.336C431.828 410.313 410.328 411.434 385.927 408.761C337.129 403.417 277.111 382.943 217.506 348.531C157.902 314.118 110.162 272.378 81.1348 232.79C66.6194 212.994 56.8409 193.814 52.5473 176.424C48.2571 159.047 49.4671 143.583 56.7321 131Z" stroke="#3D68ED" stroke-width="4"/>
<path d="M486.281 131C493.546 143.583 494.756 159.047 490.465 176.424C486.172 193.814 476.393 212.994 461.878 232.79C432.85 272.378 385.111 314.118 325.506 348.531C265.902 382.943 205.884 403.417 157.086 408.761C132.684 411.434 111.185 410.313 93.978 405.336C76.7843 400.363 63.997 391.583 56.7321 379C49.4671 366.417 48.2571 350.953 52.5473 333.576C56.8409 316.186 66.6194 297.006 81.1348 277.21C110.162 237.622 157.902 195.882 217.506 161.469C277.111 127.057 337.129 106.583 385.927 101.239C410.328 98.5659 431.828 99.6874 449.035 104.664C466.228 109.637 479.016 118.417 486.281 131Z" stroke="#3D68ED" stroke-width="4"/>
<path d="M271.506 2C286.036 2 300.034 8.68415 312.937 21.0879C325.85 33.5012 337.571 51.5594 347.458 74.0283C367.228 118.961 379.506 181.175 379.506 250C379.506 318.825 367.228 381.039 347.458 425.972C337.571 448.441 325.85 466.499 312.937 478.912C300.034 491.316 286.036 498 271.506 498C256.976 498 242.979 491.316 230.076 478.912C217.162 466.499 205.442 448.441 195.555 425.972C175.785 381.039 163.506 318.825 163.506 250C163.506 181.175 175.785 118.961 195.555 74.0283C205.442 51.5594 217.162 33.5012 230.076 21.0879C242.979 8.68415 256.976 2 271.506 2Z" stroke="#3D68ED" stroke-width="4"/>
<circle cx="464.948" cy="229.442" r="10" fill="#3D68ED"/>
<circle cx="197.948" cy="430.442" r="10" fill="#3D68ED"/>
<circle cx="157.948" cy="101.442" r="10" fill="#3D68ED"/>
<path d="M181.824 276.085V268.841L213.784 218.273H219.04V229.494H215.489L191.341 267.705V268.273H234.381V276.085H181.824ZM216.057 291V273.884V270.51V218.273H224.438V291H216.057ZM271.41 291.994C266.06 291.994 261.502 290.538 257.738 287.626C253.974 284.691 251.098 280.441 249.109 274.878C247.12 269.291 246.126 262.544 246.126 254.636C246.126 246.777 247.12 240.065 249.109 234.501C251.121 228.914 254.01 224.653 257.774 221.717C261.562 218.758 266.107 217.278 271.41 217.278C276.713 217.278 281.247 218.758 285.011 221.717C288.799 224.653 291.687 228.914 293.676 234.501C295.688 240.065 296.694 246.777 296.694 254.636C296.694 262.544 295.7 269.291 293.711 274.878C291.723 280.441 288.846 284.691 285.082 287.626C281.318 290.538 276.761 291.994 271.41 291.994ZM271.41 284.182C276.713 284.182 280.833 281.625 283.768 276.511C286.704 271.398 288.172 264.106 288.172 254.636C288.172 248.339 287.497 242.977 286.147 238.55C284.822 234.123 282.904 230.749 280.395 228.429C277.909 226.109 274.914 224.949 271.41 224.949C266.154 224.949 262.047 227.541 259.088 232.726C256.128 237.887 254.649 245.19 254.649 254.636C254.649 260.934 255.312 266.284 256.637 270.688C257.963 275.091 259.869 278.441 262.355 280.737C264.864 283.034 267.883 284.182 271.41 284.182ZM308.484 276.085V268.841L340.444 218.273H345.7V229.494H342.149L318.001 267.705V268.273H361.041V276.085H308.484ZM342.717 291V273.884V270.51V218.273H351.098V291H342.717Z" fill="#3D68ED"/>
</svg>
