<svg width="48" height="64" viewBox="0 0 48 64" fill="none" xmlns="http://www.w3.org/2000/svg">
<path d="M33 1H4C2.34315 1 1 2.34315 1 4V60C1 61.6569 2.34315 63 4 63H44C45.6569 63 47 61.6569 47 60V15H48V60C48 62.14 46.3194 63.8879 44.2061 63.9951L44 64H4L3.79395 63.9951C1.68056 63.8879 0 62.14 0 60V4C0 1.79086 1.79086 6.44256e-08 4 0H33V1Z" fill="black"/>
<path d="M33 12C33 13.6569 34.3431 15 36 15H48V16H36C33.7909 16 32 14.2091 32 12V0H33V12Z" fill="black"/>
<path d="M24 16.5C24.8011 16.5 25.6034 16.8693 26.377 17.6172C27.1529 18.3673 27.8744 19.4768 28.4912 20.8867C29.7243 23.7053 30.5 27.634 30.5 32C30.5 36.366 29.7243 40.2947 28.4912 43.1133C27.8744 44.5232 27.1529 45.6327 26.377 46.3828C25.6034 47.1307 24.8011 47.5 24 47.5C23.1989 47.5 22.3966 47.1307 21.623 46.3828C20.8471 45.6327 20.1256 44.5232 19.5088 43.1133C18.2757 40.2947 17.5 36.366 17.5 32C17.5 27.634 18.2757 23.7053 19.5088 20.8867C20.1256 19.4768 20.8471 18.3673 21.623 17.6172C22.3966 16.8693 23.1989 16.5 24 16.5Z" stroke="black"/>
<path d="M37.4234 24.25C37.824 24.9438 37.9053 25.8233 37.6444 26.8671C37.3827 27.9141 36.7826 29.0937 35.87 30.3329C34.0457 32.8101 31.0311 35.4462 27.25 37.6292C23.469 39.8122 19.6788 41.1048 16.6213 41.4462C15.0918 41.6169 13.7702 41.5468 12.7326 41.2499C11.6982 40.9539 10.9772 40.4438 10.5766 39.75C10.1761 39.0563 10.0948 38.1768 10.3557 37.1329C10.6174 36.0859 11.2175 34.9063 12.13 33.6672C13.9544 31.19 16.969 28.5538 20.75 26.3708C24.5311 24.1879 28.3213 22.8952 31.3788 22.5539C32.9083 22.3831 34.2298 22.4532 35.2674 22.7501C36.3019 23.0461 37.0229 23.5563 37.4234 24.25Z" stroke="black"/>
<path d="M10.5766 24.25C10.9771 23.5562 11.6981 23.0461 12.7326 22.7501C13.7702 22.4532 15.0917 22.3831 16.6212 22.5538C19.6787 22.8952 23.4689 24.1878 27.25 26.3708C31.031 28.5538 34.0456 31.1899 35.87 33.6671C36.7825 34.9063 37.3826 36.0859 37.6443 37.1329C37.9052 38.1767 37.8239 39.0562 37.4234 39.75C37.0228 40.4437 36.3018 40.9539 35.2674 41.2499C34.2298 41.5468 32.9082 41.6169 31.3787 41.4461C28.3212 41.1048 24.531 39.8121 20.75 37.6292C16.9689 35.4462 13.9543 32.81 12.13 30.3328C11.2174 29.0937 10.6173 27.9141 10.3556 26.8671C10.0947 25.8232 10.176 24.9437 10.5766 24.25Z" stroke="black"/>
<path d="M48 14.5859V16L32 0H33.4141L48 14.5859Z" fill="black"/>
</svg>
