<svg width="87" height="80" viewBox="0 0 87 80" fill="none" xmlns="http://www.w3.org/2000/svg">
<rect x="31.7911" y="28" width="12" height="20" rx="2" fill="#3D68ED"/>
<rect x="43.7911" y="28" width="12" height="20" rx="2" fill="#3D68ED"/>
<path d="M41.8766 54.2065C43.1024 54.7146 44.4798 54.7146 45.7055 54.2065L52.727 51.2963C55.5062 50.1444 56.6462 46.8169 55.1573 44.2027L53.9874 42.1488C53.0982 40.5875 51.4395 39.6234 49.6427 39.6234H37.9394C36.1426 39.6234 34.4839 40.5875 33.5947 42.1488L32.4248 44.2027C30.9359 46.8169 32.0759 50.1444 34.8551 51.2963L41.8766 54.2065Z" fill="#3D68ED"/>
<path d="M36.7911 47C36.7911 50.866 39.9251 54 43.7911 54C47.6571 54 50.7911 50.866 50.7911 47H43.7911H36.7911ZM43.7911 31H36.7911V47H43.7911H50.7911V31H43.7911Z" fill="white"/>
<path d="M44.7911 32V31H42.7911V32H43.7911H44.7911ZM42.7911 48C42.7911 48.5523 43.2388 49 43.7911 49C44.3434 49 44.7911 48.5523 44.7911 48H43.7911H42.7911ZM43.7911 32H42.7911V48H43.7911H44.7911V32H43.7911Z" fill="#3D68ED"/>
<path d="M43.3911 0.5C45.6418 0.5 47.8252 1.54072 49.8549 3.50293C51.887 5.46754 53.7401 8.33452 55.3071 11.916C58.4403 19.0777 60.3911 29.0066 60.3911 40C60.3911 50.9934 58.4403 60.9223 55.3071 68.084C53.7401 71.6655 51.887 74.5325 49.8549 76.4971C47.8252 78.4593 45.6418 79.5 43.3911 79.5C41.1403 79.5 38.9569 78.4593 36.9272 76.4971C34.8951 74.5325 33.042 71.6655 31.475 68.084C28.3418 60.9223 26.3911 50.9934 26.3911 40C26.3911 29.0066 28.3418 19.0777 31.475 11.916C33.042 8.33452 34.8951 5.46754 36.9272 3.50293C38.9569 1.54072 41.1403 0.5 43.3911 0.5Z" stroke="#3D68ED"/>
<path d="M77.599 20.25C78.7244 22.1992 78.9148 24.6105 78.2304 27.3493C77.545 30.0915 75.9887 33.1298 73.6705 36.2776C69.0349 42.5719 61.4116 49.2257 51.891 54.7224C42.3705 60.2191 32.7964 63.4942 25.0276 64.3616C21.1425 64.7953 17.733 64.624 15.0156 63.8464C12.3014 63.0697 10.3084 61.6992 9.18303 59.75C8.05765 57.8008 7.86723 55.3896 8.5517 52.6507C9.23704 49.9085 10.7934 46.8702 13.1116 43.7224C17.7472 37.4281 25.3705 30.7743 34.891 25.2776C44.4116 19.7809 53.9856 16.5058 61.7545 15.6384C65.6396 15.2047 69.049 15.376 71.7665 16.1536C74.4807 16.9303 76.4737 18.3008 77.599 20.25Z" stroke="#3D68ED"/>
<path d="M9.18307 20.25C10.3084 18.3008 12.3014 16.9303 15.0156 16.1536C17.7331 15.376 21.1425 15.2047 25.0276 15.6384C32.7965 16.5058 42.3705 19.7809 51.8911 25.2776C61.4117 30.7743 69.0349 37.4281 73.6705 43.7224C75.9887 46.8702 77.5451 49.9085 78.2304 52.6507C78.9149 55.3896 78.7245 57.8008 77.5991 59.75C76.4737 61.6992 74.4807 63.0697 71.7665 63.8464C69.0491 64.624 65.6396 64.7953 61.7545 64.3616C53.9857 63.4942 44.4117 60.2192 34.8911 54.7224C25.3705 49.2257 17.7472 42.5719 13.1116 36.2776C10.7934 33.1298 9.23709 30.0915 8.55175 27.3494C7.86728 24.6105 8.0577 22.1992 9.18307 20.25Z" stroke="#3D68ED"/>
</svg>
